<svg xmlns="http://www.w3.org/2000/svg" viewBox="0 0 512 512">
  <g fill="none" stroke="#25D366" stroke-width="34" stroke-linecap="round" stroke-linejoin="round">
    <path d="M150 383 76 430l24-91C70 305 55 263 59 218 69 115 157 48 263 52c108 4 192 76 198 174 6 104-78 187-190 190-43 1-84-10-121-33Z"/>
    <path d="M208 182 153 256l55 74"/>
    <path d="M304 182 359 256l-55 74"/>
    <path d="M256 173v166"/>
    <circle cx="256" cy="139" r="34"/>
    <circle cx="256" cy="373" r="34"/>
    <path d="M430 196c20 0 36 16 36 36s-16 36-36 36"/>
    <circle cx="430" cy="232" r="28"/>
  </g>
</svg>
